<?xml version="1.0" standalone="no"?>
<!DOCTYPE svg PUBLIC "-//W3C//DTD SVG 20010904//EN"
 "http://www.w3.org/TR/2001/REC-SVG-20010904/DTD/svg10.dtd">
<svg version="1.0" xmlns="http://www.w3.org/2000/svg"
 width="260.000000pt" height="260.000000pt" viewBox="0 0 260.000000 260.000000"
 preserveAspectRatio="xMidYMid meet">
<metadata>
Created by potrace 1.11, written by Peter Selinger 2001-2013
</metadata>
<g transform="translate(0.000000,260.000000) scale(0.100000,-0.100000)"
fill="#000000" stroke="none">
<path d="M1420 2544 c-312 -35 -581 -128 -693 -240 -141 -140 -204 -364 -185
-658 21 -324 145 -627 328 -800 56 -53 175 -126 185 -114 1 2 12 35 25 73 140
432 711 1038 1102 1169 183 62 286 13 305 -143 3 -28 9 -51 13 -51 14 0 71 65
76 87 4 13 9 21 13 19 9 -6 6 107 -4 123 -5 9 -4 12 2 8 5 -3 10 0 10 8 0 8
-3 12 -6 10 -4 -2 -19 20 -34 50 -16 29 -48 73 -71 98 -24 24 -57 65 -74 90
-94 136 -271 226 -528 267 -100 16 -339 18 -464 4z m790 -299 c22 -14 40 -26
40 -28 0 -5 -190 2 -199 8 -6 3 -11 17 -11 30 0 18 6 24 28 27 42 5 99 -10
142 -37z"/>
<path d="M584 2230 c-11 -11 -30 -22 -42 -25 -23 -4 -45 -19 -105 -72 -38 -33
-59 -62 -36 -48 30 18 95 71 107 88 7 9 18 17 23 17 6 0 -12 -24 -39 -52 -28
-29 -61 -66 -73 -83 -13 -16 -35 -40 -49 -52 -14 -13 -21 -23 -17 -23 5 0 -5
-17 -21 -37 -29 -37 -32 -63 -8 -63 7 0 54 60 104 133 51 72 113 156 139 185
46 52 55 70 17 32z"/>
<path d="M293 1983 c-29 -32 -53 -63 -53 -70 0 -27 50 6 99 65 46 55 49 62 29
62 -14 0 -41 -21 -75 -57z"/>
<path d="M438 1957 c-93 -104 -181 -214 -198 -246 -11 -21 -10 -26 11 -42 13
-10 27 -19 31 -19 4 0 50 57 102 128 68 90 101 145 117 190 11 35 19 65 16 68
-2 2 -38 -33 -79 -79z"/>
<path d="M188 1833 c-14 -16 -68 -116 -68 -127 0 -2 21 -2 46 -1 45 3 48 5 87
64 22 34 38 63 36 65 -2 2 -22 7 -44 10 -33 6 -44 3 -57 -11z"/>
<path d="M344 1637 c-62 -95 -115 -182 -118 -194 -6 -18 1 -28 35 -53 49 -35
57 -36 66 -12 3 9 34 67 69 127 l62 110 4 98 c2 53 1 97 -2 96 -3 0 -55 -78
-116 -172z"/>
<path d="M116 1630 c-31 -5 -37 -17 -55 -107 -8 -40 -7 -43 13 -43 11 0 44 -3
72 -6 l50 -6 23 53 c13 30 25 59 28 66 10 24 -79 53 -131 43z"/>
<path d="M2120 1549 c-373 -97 -923 -585 -966 -856 -4 -24 -4 -43 -2 -43 3 0
41 -9 84 -19 181 -45 435 -60 609 -36 139 19 288 76 348 133 73 70 112 221
103 407 -8 161 -64 424 -92 431 -5 2 -43 -6 -84 -17z"/>
<path d="M405 1428 c-47 -86 -112 -226 -120 -260 -5 -19 3 -33 45 -72 28 -27
55 -45 59 -40 4 5 23 47 41 94 19 47 42 100 52 118 16 30 17 37 3 102 -8 38
-16 83 -17 100 -1 16 -7 30 -13 30 -6 0 -29 -33 -50 -72z"/>
<path d="M46 1382 c-4 -7 -8 -91 -7 -145 1 -24 4 -27 26 -21 14 3 55 -3 96
-16 39 -12 75 -18 79 -13 4 4 15 32 25 61 16 51 16 54 -1 68 -63 50 -201 93
-218 66z"/>
<path d="M487 1118 c-32 -115 -70 -278 -65 -283 2 -2 25 -13 52 -24 85 -37
108 -27 120 54 4 22 12 61 19 88 12 47 11 48 -38 152 -27 57 -53 105 -56 105
-3 0 -18 -42 -32 -92z"/>
<path d="M55 1090 c4 -23 12 -63 19 -88 11 -45 12 -46 52 -48 23 -1 82 -18
130 -38 49 -20 93 -37 98 -39 6 -1 16 27 22 63 12 62 12 66 -9 84 -47 41 -188
98 -255 104 l-64 5 7 -43z"/>
<path d="M681 858 c-6 -18 -19 -78 -30 -133 -10 -55 -22 -113 -27 -129 l-7
-29 82 6 c45 3 85 8 90 11 4 3 15 42 25 88 l17 83 -65 68 c-36 37 -67 67 -70
67 -2 0 -9 -15 -15 -32z"/>
<path d="M120 857 c0 -7 78 -179 84 -184 2 -2 39 -12 82 -23 44 -10 122 -33
174 -49 52 -17 95 -29 97 -27 7 7 21 142 15 148 -4 4 -52 21 -107 38 -55 18
-131 45 -169 62 -62 27 -176 49 -176 35z"/>
<path d="M901 602 c-28 -105 -45 -191 -38 -198 6 -7 94 19 133 39 23 12 34 31
54 86 13 38 22 72 20 74 -8 7 -139 77 -144 77 -2 0 -13 -35 -25 -78z"/>
<path d="M2120 620 c-25 -10 -76 -26 -115 -35 -38 -10 -74 -21 -78 -25 -5 -4
17 -22 48 -39 47 -26 54 -35 45 -46 -7 -8 -17 -12 -24 -8 -6 3 -8 3 -4 -2 4
-4 -76 -68 -177 -143 -102 -74 -185 -139 -185 -144 0 -12 132 58 223 119 64
43 242 202 234 209 -2 2 16 24 39 49 51 53 71 86 52 84 -7 -1 -33 -9 -58 -19z"/>
<path d="M1120 543 c-19 -64 -24 -185 -8 -205 12 -16 18 -15 83 20 l70 38 6
65 c7 75 2 82 -62 98 -26 6 -53 13 -62 17 -12 4 -19 -4 -27 -33z"/>
<path d="M296 538 c10 -13 52 -58 93 -100 l76 -78 120 1 c182 2 177 0 194 86
8 40 13 75 10 77 -3 3 -29 -1 -59 -10 -119 -32 -177 -27 -380 35 -19 6 -43 11
-54 11 -19 0 -19 -1 0 -22z"/>
<path d="M1777 534 c-2 -2 -19 -4 -40 -6 -20 -1 -37 -6 -37 -10 0 -5 20 -18
44 -30 l44 -21 46 27 c25 15 46 31 46 37 0 8 -95 11 -103 3z"/>
<path d="M1349 512 c22 -42 120 -108 199 -136 l42 -15 65 41 c36 22 65 43 65
47 0 15 -178 64 -245 67 -38 2 -85 6 -103 9 -31 6 -32 5 -23 -13z"/>
<path d="M1890 501 c-19 -16 -85 -60 -146 -97 -62 -38 -164 -102 -229 -143
-94 -59 -119 -71 -127 -60 -8 11 -9 11 -5 -3 4 -12 -12 -28 -61 -60 -61 -40
-64 -43 -39 -46 15 -2 62 3 106 12 75 14 88 20 287 153 115 75 214 136 219
134 6 -1 7 0 4 3 -3 4 9 23 28 42 23 25 31 40 24 48 -9 11 -11 17 -11 36 0 16
-13 11 -50 -19z"/>
<path d="M1967 499 c7 -7 15 -10 18 -7 3 3 -2 9 -12 12 -14 6 -15 5 -6 -5z"/>
<path d="M986 392 c-9 -15 -267 -119 -313 -127 -24 -4 -43 -10 -43 -14 0 -10
171 -91 192 -91 18 0 185 85 210 107 16 14 16 18 -2 66 -21 56 -35 74 -44 59z"/>
<path d="M1326 383 c-6 -19 -258 -185 -340 -225 -25 -12 -46 -25 -46 -29 0 -8
73 -25 151 -34 45 -6 53 -2 215 90 93 54 184 109 203 123 l34 25 -22 18 c-26
21 -117 49 -159 49 -20 0 -33 -6 -36 -17z"/>
</g>
</svg>
